<?xml version="1.0" encoding="UTF-8" standalone="no"?><!DOCTYPE svg PUBLIC "-//W3C//DTD SVG 1.1//EN" "http://www.w3.org/Graphics/SVG/1.1/DTD/svg11.dtd"><svg width="100%" height="100%" viewBox="0 0 2084 2084" version="1.1" xmlns="http://www.w3.org/2000/svg" xmlns:xlink="http://www.w3.org/1999/xlink" xml:space="preserve" xmlns:serif="http://www.serif.com/" style="fill-rule:evenodd;clip-rule:evenodd;stroke-linejoin:round;stroke-miterlimit:2;"><rect id="Page-1" serif:id="Page 1" x="0" y="0" width="2083.333" height="2083.333" style="fill:none;"/><g id="OBJECTS"><path d="M1934.12,1845.535c0,30.138 -375.079,54.567 -837.758,54.567c-462.683,0 -837.763,-24.429 -837.763,-54.567c0,-30.137 375.079,-54.567 837.763,-54.567c462.679,0 837.758,24.429 837.758,54.567" style="fill:#d1b7aa;fill-rule:nonzero;"/><path d="M714.195,207.705l18.1,5.871l-18.1,5.867c-7.379,2.392 -13.163,8.179 -15.554,15.554l-5.871,18.1l-5.867,-18.1c-2.392,-7.375 -8.175,-13.163 -15.554,-15.554l-18.1,-5.867l18.1,-5.871c7.379,-2.392 13.163,-8.175 15.554,-15.554l5.867,-18.1l5.871,18.1c2.392,7.379 8.175,13.162 15.554,15.554" style="fill:#fff;fill-rule:nonzero;"/><path d="M1824.116,1381.103l18.1,5.871l-18.1,5.867c-7.379,2.392 -13.162,8.175 -15.554,15.554l-5.871,18.1l-5.867,-18.1c-2.392,-7.379 -8.179,-13.162 -15.554,-15.554l-18.1,-5.867l18.1,-5.871c7.375,-2.392 13.162,-8.175 15.554,-15.554l5.867,-18.1l5.871,18.1c2.392,7.379 8.175,13.163 15.554,15.554" style="fill:#fff;fill-rule:nonzero;"/><path d="M254.055,1225.648l18.1,5.871l-18.1,5.867c-7.379,2.392 -13.162,8.179 -15.554,15.554l-5.871,18.1l-5.867,-18.1c-2.392,-7.375 -8.175,-13.162 -15.554,-15.554l-18.1,-5.867l18.1,-5.871c7.379,-2.392 13.162,-8.175 15.554,-15.554l5.867,-18.1l5.871,18.1c2.392,7.379 8.175,13.163 15.554,15.554" style="fill:#fff;fill-rule:nonzero;"/><path d="M1067.055,675.102l10.508,3.408l-10.508,3.408c-4.283,1.388 -7.642,4.746 -9.033,9.029l-3.404,10.512l-3.408,-10.512c-1.392,-4.283 -4.75,-7.642 -9.033,-9.029l-10.508,-3.408l10.508,-3.408c4.283,-1.387 7.642,-4.746 9.033,-9.033l3.408,-10.508l3.404,10.508c1.392,4.288 4.75,7.646 9.033,9.033" style="fill:#fff;fill-rule:nonzero;"/><path d="M425.364,448.924l10.508,3.408l-10.508,3.408c-4.283,1.387 -7.642,4.746 -9.033,9.029l-3.404,10.513l-3.408,-10.513c-1.392,-4.283 -4.75,-7.642 -9.033,-9.029l-10.508,-3.408l10.508,-3.408c4.283,-1.387 7.642,-4.746 9.033,-9.033l3.408,-10.508l3.404,10.508c1.392,4.288 4.75,7.646 9.033,9.033" style="fill:#fff;fill-rule:nonzero;"/><path d="M293.184,1134.161l10.508,3.408l-10.508,3.408c-4.283,1.388 -7.642,4.746 -9.033,9.029l-3.404,10.513l-3.408,-10.513c-1.392,-4.283 -4.75,-7.642 -9.033,-9.029l-10.508,-3.408l10.508,-3.408c4.283,-1.388 7.642,-4.746 9.033,-9.033l3.408,-10.508l3.404,10.508c1.392,4.287 4.75,7.646 9.033,9.033" style="fill:#fff;fill-rule:nonzero;"/><path d="M1652.34,1398.903c0,0 -36.796,4.025 -51.167,12.075c-14.371,8.046 -21.271,35.067 4.025,35.067l82.787,0c17.246,0 10.346,-38.517 1.15,-48.867l-36.796,1.725Z" style="fill:#27314a;fill-rule:nonzero;"/><path d="M1635.482,1340.719c0,0 9.362,50.25 11.962,58.492c3.987,12.629 39.388,11.971 42.542,-1.996c4.65,-20.604 4.65,-62.479 4.65,-62.479l-59.154,5.983Z" style="fill:#f0887b;fill-rule:nonzero;"/><path d="M1628.998,1412.019c-0.804,-1.454 -1.846,-2.829 -3.067,-3.958c-1.275,-1.179 -2.692,-2.225 -4.15,-3.162c-1.533,-0.987 -3.312,-2.2 -5.208,-2.075c-1.237,0.083 -2.538,1.292 -2.025,2.654c0.221,0.575 0.438,1.108 0.842,1.579c0.242,0.283 0.525,0.55 0.787,0.812c0.25,0.246 0.538,0.45 0.817,0.667c0.046,0.033 0.146,0.1 0.217,0.15c-0.033,-0.025 -0.062,-0.042 -0.15,-0.1c0.312,0.208 0.604,0.475 0.892,0.713c1.15,0.946 2.246,1.954 3.225,3.075c0.204,0.238 0.392,0.496 0.6,0.729c-0.717,-0.804 0.175,0.233 0.308,0.404c0.358,0.562 0.771,1.083 1.1,1.671c0.167,0.304 0.321,0.612 0.471,0.925c0.042,0.083 0.054,0.112 0.062,0.129c0.112,0.275 0.217,0.554 0.358,0.812c0.142,0.271 0.283,0.538 0.429,0.804c0.358,0.65 0.912,1.05 1.521,1.429c1.267,0.8 2.867,0.217 3.642,-0.954c1.308,-1.967 0.362,-4.433 -0.671,-6.304" style="fill:#fff;fill-rule:nonzero;"/><path d="M1643.573,1410.642c-0.283,-0.921 -0.629,-1.837 -1.112,-2.675c-0.846,-1.463 -1.896,-2.842 -3.062,-4.067c-2.338,-2.45 -5.492,-4.638 -8.933,-4.967c-0.892,-0.083 -1.771,0.65 -2.096,1.412c-0.325,0.767 -0.233,1.938 0.475,2.504c0.646,0.513 1.296,0.983 1.979,1.442c0.158,0.104 0.312,0.212 0.463,0.321c0.021,0.017 0.05,0.029 0.075,0.042c0.238,0.129 0.471,0.396 0.671,0.562c1.062,0.896 2.025,1.838 2.904,2.908c0.1,0.133 0.196,0.267 0.288,0.404c0.196,0.279 0.379,0.567 0.558,0.858c0.354,0.587 0.679,1.192 0.963,1.812c0.287,0.621 0.583,1.233 0.879,1.85c0.038,0.092 0.038,0.088 0.029,0.067c0.05,0.121 0.1,0.237 0.15,0.358c0.179,0.329 0.45,0.65 0.725,0.904c0.237,0.221 0.492,0.425 0.729,0.65c1.396,1.308 3.554,0.7 4.133,-1.092c0.362,-1.108 0.538,-2.142 0.183,-3.296" style="fill:#fff;fill-rule:nonzero;"/><path d="M1683.669,1420.528c-0.383,-1.362 -1.071,-2.546 -2.071,-3.55c-0.542,-0.421 -1.083,-0.838 -1.625,-1.258c-1.254,-0.725 -2.608,-1.092 -4.062,-1.096c-1.104,-0.042 -2.137,0.188 -3.096,0.692c-1,0.325 -1.862,0.879 -2.592,1.662c-0.783,0.729 -1.337,1.592 -1.662,2.588c-0.504,0.958 -0.733,1.992 -0.692,3.1c0.096,0.713 0.192,1.425 0.287,2.138c0.379,1.367 1.071,2.546 2.067,3.55c0.546,0.421 1.088,0.838 1.629,1.258c1.254,0.729 2.608,1.096 4.058,1.1c1.108,0.042 2.142,-0.192 3.1,-0.696c0.996,-0.321 1.862,-0.875 2.587,-1.662c0.788,-0.729 1.342,-1.592 1.667,-2.588c0.504,-0.958 0.733,-1.992 0.692,-3.1c-0.096,-0.713 -0.192,-1.425 -0.287,-2.138" style="fill:#fff;fill-rule:nonzero;"/><path d="M1637.255,1350.12c8.213,3.658 29.371,10.588 56.75,9.171c0.629,-13.521 0.633,-24.554 0.633,-24.554l-59.158,5.983c0,0 0.704,3.771 1.775,9.4" style="fill:#cf4d4f;fill-rule:nonzero;"/><path d="M1507.442,1398.903c0,0 -36.796,4.025 -51.167,12.075c-14.371,8.046 -21.271,35.067 4.025,35.067l82.787,0c17.246,0 10.346,-38.517 1.15,-48.867l-36.796,1.725Z" style="fill:#27314a;fill-rule:nonzero;"/><path d="M1490.584,1340.719c0,0 9.362,50.25 11.962,58.492c3.987,12.629 39.388,11.971 42.542,-1.996c4.65,-20.604 4.65,-62.479 4.65,-62.479l-59.154,5.983Z" style="fill:#f0887b;fill-rule:nonzero;"/><path d="M1484.1,1412.019c-0.804,-1.454 -1.846,-2.829 -3.067,-3.958c-1.275,-1.179 -2.692,-2.225 -4.15,-3.162c-1.533,-0.987 -3.312,-2.2 -5.208,-2.075c-1.237,0.083 -2.538,1.292 -2.025,2.654c0.221,0.575 0.438,1.108 0.842,1.579c0.242,0.283 0.525,0.55 0.787,0.812c0.25,0.246 0.538,0.45 0.817,0.667c0.046,0.033 0.146,0.1 0.217,0.15c-0.033,-0.025 -0.062,-0.042 -0.15,-0.1c0.317,0.208 0.604,0.475 0.892,0.713c1.15,0.946 2.25,1.954 3.225,3.075c0.204,0.238 0.392,0.496 0.6,0.729c-0.717,-0.804 0.175,0.233 0.312,0.404c0.354,0.562 0.767,1.083 1.096,1.671c0.167,0.304 0.321,0.612 0.471,0.925c0.042,0.083 0.054,0.112 0.067,0.129c0.108,0.275 0.213,0.554 0.354,0.812c0.146,0.271 0.283,0.538 0.429,0.804c0.362,0.65 0.912,1.05 1.521,1.429c1.267,0.8 2.867,0.217 3.642,-0.954c1.308,-1.967 0.367,-4.433 -0.671,-6.304" style="fill:#fff;fill-rule:nonzero;"/><path d="M1498.675,1410.642c-0.283,-0.921 -0.629,-1.837 -1.108,-2.675c-0.846,-1.463 -1.9,-2.842 -3.067,-4.067c-2.338,-2.45 -5.492,-4.638 -8.933,-4.967c-0.892,-0.083 -1.771,0.65 -2.096,1.412c-0.325,0.767 -0.233,1.938 0.475,2.504c0.646,0.513 1.296,0.983 1.979,1.442c0.158,0.104 0.312,0.212 0.463,0.321c0.021,0.017 0.05,0.029 0.075,0.042c0.238,0.129 0.471,0.396 0.671,0.562c1.062,0.896 2.025,1.838 2.904,2.908c0.1,0.133 0.196,0.267 0.288,0.404c0.196,0.279 0.379,0.567 0.558,0.858c0.354,0.587 0.679,1.192 0.963,1.812c0.287,0.621 0.583,1.233 0.879,1.85c0.038,0.092 0.038,0.088 0.029,0.067c0.05,0.121 0.104,0.237 0.154,0.358c0.175,0.329 0.446,0.65 0.721,0.904c0.237,0.221 0.492,0.425 0.733,0.65c1.392,1.308 3.55,0.7 4.129,-1.092c0.362,-1.108 0.542,-2.142 0.183,-3.296" style="fill:#fff;fill-rule:nonzero;"/><path d="M1538.771,1420.528c-0.383,-1.362 -1.071,-2.546 -2.071,-3.55c-0.542,-0.421 -1.083,-0.838 -1.625,-1.258c-1.254,-0.725 -2.608,-1.092 -4.062,-1.096c-1.104,-0.042 -2.137,0.188 -3.096,0.692c-1,0.325 -1.862,0.879 -2.592,1.662c-0.783,0.729 -1.337,1.592 -1.662,2.588c-0.504,0.958 -0.733,1.992 -0.692,3.1c0.096,0.713 0.192,1.425 0.287,2.138c0.379,1.367 1.071,2.546 2.067,3.55c0.546,0.421 1.088,0.838 1.629,1.258c1.254,0.729 2.608,1.096 4.058,1.1c1.108,0.042 2.142,-0.192 3.1,-0.696c0.996,-0.321 1.862,-0.875 2.587,-1.662c0.788,-0.729 1.342,-1.592 1.667,-2.588c0.5,-0.958 0.733,-1.992 0.692,-3.1c-0.096,-0.713 -0.192,-1.425 -0.287,-2.138" style="fill:#fff;fill-rule:nonzero;"/><path d="M1492.358,1350.12c8.213,3.658 29.371,10.588 56.75,9.171c0.629,-13.521 0.633,-24.554 0.633,-24.554l-59.158,5.983c0,0 0.704,3.771 1.775,9.4" style="fill:#cf4d4f;fill-rule:nonzero;"/><path d="M1670.71,940.588c4.654,15.287 19.275,55.167 20.604,101.696c1.329,46.525 6.646,270.521 8.642,305.083l-71.121,0c0,0 -47.192,-171.488 -49.85,-301.096c0,0 -17.117,103.617 -23.263,148.883c-7.312,53.842 2.658,152.875 2.658,152.875l-75.771,0c0,0 -24.596,-164.837 -13.296,-251.246c11.3,-86.404 30.575,-162.179 30.575,-162.179l170.821,5.983Z" style="fill:#3b6e57;fill-rule:nonzero;"/><path d="M1676.013,957.4c-2.171,-7.067 -4.083,-12.804 -5.304,-16.812l-85.621,-2.996l-16.738,4.992l0.333,16.95c0,0 50.508,14.421 107.329,-2.133" style="fill:#27314a;fill-rule:nonzero;"/><path d="M1456.354,787.133c0,0 21.438,10.471 44.117,8.725c22.683,-1.746 -1.496,-17.45 -1.496,-17.45l-42.621,8.725Z" style="fill:#27314a;fill-rule:nonzero;"/><path d="M1507.533,789.044c1.75,-0.483 -6.317,30.242 -13.292,45.196c-4.346,9.312 -37.887,53.508 -37.887,53.508l-29.579,-17.946c0,0 29.579,-50.017 32.071,-56c2.492,-5.983 8.475,-49.35 8.475,-49.35l30.908,-4.487l9.304,29.079Z" style="fill:#f0887b;fill-rule:nonzero;"/><path d="M1467.321,764.451c0,0 -1.654,11.983 -3.583,24.221c5.762,1.225 28.312,6.329 41.388,13.65c2.067,-7.762 3.171,-13.487 2.408,-13.279l-8.033,-25.108l-8.096,-2.979l-24.083,3.496Z" style="fill:#cf4d4f;fill-rule:nonzero;"/><path d="M1623.104,676.935c23.675,3.271 42.621,10.746 53.588,22.212c10.967,11.467 13.958,118.146 8.971,132.604l-5.646,-3.158l-12.796,12.129c0,0 -0.5,64.804 9.971,101.196c0,0 -82.754,37.888 -181.454,-6.979c0,0 19.438,-33.4 13.954,-89.729c-0.871,-8.946 -10.467,-32.404 -9.967,-54.837c0,0 -28.917,-5.483 -43.371,-3.237c0,0 12.963,-67.05 24.925,-82.504c11.963,-15.454 38.383,-23.429 48.354,-25.921c9.971,-2.492 28.417,3.488 28.417,3.488l40.375,-1.992l24.679,-3.271Z" style="fill:#5e7abb;fill-rule:nonzero;"/><path d="M1675.126,933.752c-0.267,-1.179 -0.521,-2.379 -0.771,-3.596c-8.113,2.675 -16.275,5.142 -24.621,7.129c-12.362,2.938 -24.875,5.008 -37.525,6.221c-25.321,2.429 -50.958,1.579 -76.196,-1.383c-12.283,-1.442 -24.471,-3.471 -36.642,-5.617c3.242,1.413 6.462,2.737 9.667,3.979c19.654,4.263 39.875,6.438 59.854,7.238c25.812,1.029 51.862,-0.925 77.183,-6.079c9.787,-1.992 19.567,-4.575 29.05,-7.892" style="fill:#27314a;fill-rule:nonzero;"/><path d="M1384.902,872.127l178.304,147.375c9.587,7.925 23.704,6.95 32.112,-2.217l3.025,-3.296c8.488,-9.254 8.15,-23.562 -0.775,-32.404l-164.146,-162.633l-48.521,53.175Z" style="fill:#27314a;fill-rule:nonzero;"/><path d="M1600.345,537.113c0,0 4.638,-31.079 41.383,-32.858c36.746,-1.779 51.392,25.971 54.421,53.492c3.029,27.521 6.733,41.958 15.571,47.571c0,0 -35.629,30.313 -64.492,-5.35c-28.858,-35.663 -46.883,-62.854 -46.883,-62.854" style="fill:#6d263b;fill-rule:nonzero;"/><path d="M1626.209,507.21c-22.6,8.142 -25.862,29.904 -25.862,29.904c0,0 17.308,26.092 45.121,60.654c5.025,-0.817 8.925,-5.346 10.904,-15.263c8.467,-42.387 -19.004,-67.171 -30.163,-75.296" style="fill:#27314a;fill-rule:nonzero;"/><path d="M1541.445,657.497c-23.058,-15.954 -33.938,-13.033 -38.562,-73.171c-4.629,-60.142 89.621,-110.725 135.158,-53.025c28.633,36.283 31.146,101.367 -14.946,117.254c-51.617,17.788 -81.65,8.942 -81.65,8.942" style="fill:#6d263b;fill-rule:nonzero;"/><path d="M1463.167,743.68c0,87.275 -70.75,158.025 -158.025,158.025c-87.275,0 -158.025,-70.75 -158.025,-158.025c0,-87.275 70.75,-158.025 158.025,-158.025c87.275,0 158.025,70.75 158.025,158.025" style="fill:#27314a;fill-rule:nonzero;"/><path d="M1424.233,743.68c0,65.771 -53.321,119.092 -119.092,119.092c-65.771,0 -119.092,-53.321 -119.092,-119.092c0,-65.771 53.321,-119.092 119.092,-119.092c65.771,0 119.092,53.321 119.092,119.092" style="fill:#b1d0e8;fill-rule:nonzero;"/><path d="M1548.078,653.119c0,0 -0.333,8.642 -1.996,15.621c-1.658,6.979 -16.45,9.971 -16.45,9.971c0,0 10.138,24.925 33.4,29.575l7.975,33.567l11.3,-32.237c0,0 27.171,-4.1 40.796,-32.679c0,0 -5.233,-0.554 -12.213,-3.546c-6.979,-2.992 -6.65,-23.263 -6.65,-23.263l-56.162,2.992Z" style="fill:#f0887b;fill-rule:nonzero;"/><path d="M1405.507,911.343c-4.358,-15.608 0,-25.921 3.654,-30.908c3.658,-4.983 6.65,1.329 6.979,3.325c0.333,1.996 -0.663,15.287 -0.663,15.287c0,0 2.658,-8.308 7.975,-17.612c5.317,-9.308 11.3,-12.296 14.954,-5.317c0,0 5.317,-2.992 8.642,4.983c0,0 6.979,1.329 5.65,10.633c0,0 4.654,3.988 2.992,10.633c-1.663,6.65 -8.975,14.292 -11.967,24.596c-2.992,10.3 -32.3,5.562 -38.217,-15.621" style="fill:#f0887b;fill-rule:nonzero;"/><path d="M1685.665,831.749c-10.221,2.742 -54.588,-8.225 -60.321,-11.467c0,0 3.117,-3.117 7.479,-3.987l26.921,6.854l10.967,2.617l9.304,2.825l5.65,3.158Z" style="fill:#27314a;fill-rule:nonzero;"/><path d="M1632.823,816.295c0,0 -4.654,17.117 -11.963,27.417c-7.312,10.304 -75.442,79.929 -79.096,82.917c-3.658,2.992 -27.583,1.996 -34.562,6.317c-6.979,4.321 -1.329,8.971 3.987,8.642c5.317,-0.333 14.288,0.996 14.288,0.996c0,0 -5.646,9.971 -8.971,13.292c-3.325,3.325 -13.296,8.308 -16.95,9.308c-3.654,0.996 -2.992,9.304 1.329,8.971c0,0 -4.321,7.646 4.654,10.638c0,0 -1.996,4.983 6.646,5.646c0,0 0.333,2.329 9.638,1.663c9.304,-0.663 20.938,-12.629 25.921,-17.613c4.987,-4.983 13.629,-20.604 15.954,-22.267c2.325,-1.663 78.763,-64.475 90.396,-77.767c11.629,-13.292 25.921,-45.863 25.921,-45.863c0,0 -24.263,-16.95 -47.192,-12.296" style="fill:#f0887b;fill-rule:nonzero;"/><path d="M1614.843,674.896c-1.237,-0.421 -2.546,-0.9 -3.954,-1.504c-6.979,-2.992 -6.646,-23.263 -6.646,-23.263l-30.179,1.604l-18.438,2.946l-8.192,6.133c-0.125,1.042 -0.279,2.129 -0.454,3.233c6.221,5.646 29.712,23.387 67.862,10.85" style="fill:#cf4d4f;fill-rule:nonzero;"/><path d="M1627.484,590.647c0,0 14.1,-8.354 22.971,5.725c8.867,14.075 -5.592,26.058 -17.471,26.054c0,0 -11.213,49.683 -54.146,51.533c-42.729,1.842 -61.117,-41.917 -64.575,-74.3c0,0 19.229,-9.092 21.362,-19.513c2.133,-10.421 28.421,-11.554 41.537,-30.708c0,0 10.125,19.188 22.562,20.2c12.438,1.012 24.871,13.904 27.758,21.008" style="fill:#f0887b;fill-rule:nonzero;"/><path d="M1599.725,569.638c-12.438,-1.013 -22.558,-20.2 -22.558,-20.2c-13.121,19.154 -39.408,20.288 -41.542,30.708c-2.133,10.421 -21.363,19.513 -21.363,19.513c0.117,1.087 0.25,2.188 0.4,3.296c7.475,-1.725 20.95,-11.213 24.071,-18.338c3.487,-7.975 24.8,-11.592 37.262,-26.046c0,0 9.221,14.204 22.679,15.7c10.496,1.167 21.346,9.729 27.062,13.121c-4.612,-7.208 -15.304,-16.883 -26.013,-17.754" style="fill:#cf4d4f;fill-rule:nonzero;"/><path d="M1644.818,598.715c0.454,-1.117 -0.6,-2.3 -1.375,-2.958c-0.925,-0.779 -1.908,-1.404 -3.071,-1.762c-2.125,-0.65 -4.662,-0.233 -6.167,1.496c-1.383,1.592 -1.65,3.796 -1.558,5.833c0.121,2.571 0.454,5.154 0.862,7.692c0.225,1.408 2.367,1.925 3.258,0.858c0.862,-1.025 2.875,-2.375 4.037,-0.912c0.496,0.621 0.188,1.575 -0.133,2.192c-0.275,0.529 -0.679,0.979 -0.967,1.504c-0.317,0.575 -0.508,1.2 -0.654,1.837c-0.2,0.862 0.571,1.771 1.487,1.487c2.004,-0.625 3.237,-2.1 3.908,-4.067c0.646,-1.888 0.333,-3.95 -0.962,-5.479c-1.704,-2.008 -4.283,-2.25 -6.513,-1.387c-0.104,-0.992 -0.267,-1.975 -0.304,-2.971c-0.054,-1.237 -0.212,-2.912 0.625,-3.892c1.95,-2.283 6.179,3.825 7.525,0.529" style="fill:#cf4d4f;fill-rule:nonzero;"/><path d="M1632.823,816.295c0,0 -0.271,0.983 -0.767,2.588c3.792,1.204 26.879,5.05 44.342,17.558c2.237,-4.712 3.617,-7.85 3.617,-7.85c0,0 -24.263,-16.95 -47.192,-12.296" style="fill:#cf4d4f;fill-rule:nonzero;"/><path d="M1531.638,956.12c-1.308,0.608 -2.237,2.079 -3.158,3.154c-1.046,1.217 -2.088,2.446 -3.217,3.592c-2.096,2.117 -4.458,3.979 -7.013,5.513c-5.046,3.038 -10.592,5.204 -16.433,6.058c-0.625,0.092 -0.483,1.15 0.15,1.108c6.1,-0.413 12.108,-2.142 17.279,-5.462c2.508,-1.613 4.867,-3.467 6.975,-5.575c1.254,-1.25 2.429,-2.567 3.596,-3.896c1.004,-1.142 2.325,-2.242 2.888,-3.671c0.254,-0.654 -0.558,-1.058 -1.067,-0.821" style="fill:#cf4d4f;fill-rule:nonzero;"/><path d="M1538.386,967.122c-2.35,1.992 -4.496,4.163 -6.971,6.021c-2.45,1.837 -5.075,3.454 -7.788,4.883c-5.433,2.875 -11.35,4.821 -17.35,6.117c-0.8,0.171 -0.446,1.333 0.338,1.212c6.246,-0.992 12.192,-3.075 17.837,-5.921c2.817,-1.421 5.521,-3.058 8.117,-4.85c2.546,-1.754 5.237,-3.667 7.321,-5.958c0.933,-1.025 -0.467,-2.383 -1.504,-1.504" style="fill:#cf4d4f;fill-rule:nonzero;"/><path d="M1538.465,976.634c-2.025,0.654 -3.654,2.4 -5.388,3.604c-1.871,1.304 -3.812,2.508 -5.825,3.579c-2.008,1.071 -4.079,2.029 -6.2,2.858c-2.183,0.85 -4.496,1.446 -6.65,2.342c-0.629,0.258 -0.654,1.433 0.179,1.329c2.275,-0.296 4.592,-1.154 6.717,-1.992c2.188,-0.863 4.329,-1.842 6.408,-2.942c2.075,-1.104 4.092,-2.308 6.033,-3.629c1.792,-1.221 4.183,-2.575 5.179,-4.558c0.15,-0.296 -0.1,-0.708 -0.454,-0.592" style="fill:#cf4d4f;fill-rule:nonzero;"/><path d="M1437.237,876.683c-1.037,-0.029 -1.75,1.017 -2.362,1.746c-0.783,0.933 -1.487,1.95 -2.183,2.95c-1.487,2.154 -2.8,4.421 -3.963,6.763c-1.108,2.237 -2.112,4.529 -2.975,6.871c-0.438,1.196 -0.838,2.404 -1.2,3.625c-0.312,1.062 -0.967,2.537 -0.533,3.612c0.246,0.612 0.929,0.85 1.454,0.383c0.792,-0.708 0.888,-1.992 1.158,-2.983c0.329,-1.229 0.7,-2.446 1.113,-3.65c0.817,-2.388 1.783,-4.717 2.942,-6.958c1.1,-2.133 2.342,-4.2 3.671,-6.2c0.704,-1.058 1.475,-2.067 2.212,-3.104c0.562,-0.792 1.388,-1.642 1.179,-2.662c-0.046,-0.233 -0.292,-0.388 -0.513,-0.392" style="fill:#cf4d4f;fill-rule:nonzero;"/><path d="M1446.321,882.318c-1.042,-0.004 -1.737,0.833 -2.433,1.521c-0.825,0.821 -1.583,1.7 -2.296,2.617c-1.4,1.812 -2.583,3.779 -3.575,5.846c-1.054,2.196 -1.958,4.496 -2.617,6.837c-0.358,1.267 -0.675,2.542 -0.975,3.825c-0.288,1.238 -0.717,2.558 -0.717,3.833c0,0.592 0.854,0.863 1.142,0.312c0.529,-1.017 0.75,-2.183 1.075,-3.279c0.333,-1.121 0.679,-2.237 1.054,-3.346c0.796,-2.367 1.621,-4.733 2.696,-6.992c0.921,-1.925 2,-3.783 3.275,-5.5c0.638,-0.867 1.338,-1.683 2.083,-2.458c0.683,-0.704 1.75,-1.346 1.942,-2.358c0.079,-0.429 -0.188,-0.854 -0.654,-0.858" style="fill:#cf4d4f;fill-rule:nonzero;"/><path d="M1451.88,892.36c-0.967,-0.096 -1.604,0.683 -2.217,1.325c-0.696,0.729 -1.308,1.546 -1.879,2.375c-1.242,1.8 -2.237,3.758 -3.1,5.767c-0.833,1.946 -1.546,3.938 -2.196,5.954c-0.596,1.858 -1.854,4.404 -0.987,6.329c0.279,0.617 1.183,0.263 1.2,-0.325c0.037,-1.138 0.117,-2.079 0.467,-3.171c0.317,-0.971 0.646,-1.942 0.979,-2.908c0.662,-1.925 1.35,-3.842 2.183,-5.7c0.779,-1.737 1.675,-3.425 2.746,-4.996c0.587,-0.863 1.237,-1.679 1.921,-2.467c0.521,-0.604 1.108,-1.1 1.108,-1.958c0,-0.129 -0.104,-0.212 -0.225,-0.225" style="fill:#cf4d4f;fill-rule:nonzero;"/><path d="M1511.443,733.582c-2.963,3.621 -4.258,8.5 -5.713,12.871c-1.654,4.967 -2.946,10.062 -4.037,15.183c-1.021,4.792 -1.833,9.621 -2.379,14.488c-0.496,4.404 -1.896,10.3 -0.062,14.512c0.162,0.367 0.746,0.325 0.921,0c0.975,-1.842 1.092,-3.929 1.262,-5.975c0.213,-2.537 0.446,-5.067 0.754,-7.592c0.621,-5.062 1.429,-10.117 2.462,-15.113c0.992,-4.825 2.246,-9.583 3.579,-14.325c1.275,-4.533 3.392,-9.104 3.733,-13.833c0.021,-0.254 -0.354,-0.421 -0.521,-0.217" style="fill:#27314a;fill-rule:nonzero;"/><path d="M1619.418,705.036c4.375,-4.429 7.821,-9.65 10.221,-15.387c1.192,-2.842 2.242,-5.812 2.663,-8.875c0.1,-0.708 0.225,-1.454 0.35,-2.217c-0.737,-0.146 -1.487,-0.283 -2.237,-0.421c-0.15,0.788 -0.325,1.571 -0.588,2.342c-0.954,2.817 -1.8,5.637 -3.062,8.342c-2.446,5.246 -5.779,10.117 -9.892,14.196c-4.108,4.071 -8.992,7.408 -14.254,9.8c-2.596,1.179 -5.288,2.05 -8.033,2.8c-1.425,0.392 -2.858,0.754 -4.317,1.029c-0.65,0.125 -1.246,0.192 -1.792,0.367c-0.579,-0.042 -1.188,0.221 -1.429,0.921c-4.587,13.129 -10.037,25.804 -16.75,37.971c-2.471,-6.225 -4.263,-12.646 -6.004,-19.125c-0.983,-3.646 -1.871,-7.312 -2.717,-10.992c-0.775,-3.375 -1.208,-7.371 -2.754,-10.479c-0.033,-0.062 -0.092,-0.067 -0.125,-0.117c0.046,-0.217 0.046,-0.454 -0.046,-0.729c-0.525,-1.575 -3.475,-1.888 -4.842,-2.35c-7.525,-2.546 -14.475,-6.733 -20.196,-12.25c-5.408,-5.217 -9.871,-11.663 -13.175,-18.504c-0.429,0.138 -0.858,0.275 -1.3,0.425c3.946,13.533 14.35,24.642 26.979,30.879c1.675,0.829 3.396,1.554 5.158,2.183c1.558,0.554 3.408,1.312 5.121,1.425c-0.013,1.763 0.487,3.546 0.812,5.271c0.379,1.992 0.783,3.971 1.221,5.95c0.812,3.688 1.65,7.371 2.629,11.017c1.983,7.383 4.692,14.617 7.775,21.608c0.458,1.038 2.046,0.888 2.55,0c7.354,-12.938 13.65,-26.671 18.108,-40.892c1.95,0.092 4.371,-0.587 5.842,-0.892c3.021,-0.625 5.983,-1.683 8.808,-2.908c5.7,-2.467 10.908,-5.962 15.275,-10.388" style="fill:#27314a;fill-rule:nonzero;"/><path d="M1636.944,755.088c-0.054,-0.146 -0.304,-0.233 -0.383,-0.05c-1.912,4.337 -1.571,9.842 -1.992,14.508c-0.508,5.654 -1.237,11.279 -2.071,16.892c-1.612,10.863 -4.375,21.433 -6.492,32.192c-0.263,1.333 1.55,1.821 2.021,0.558c3.85,-10.354 5.821,-21.546 7.463,-32.438c0.783,-5.212 1.338,-10.462 1.758,-15.717c0.213,-2.646 0.371,-5.283 0.421,-7.938c0.05,-2.771 0.267,-5.379 -0.725,-8.008" style="fill:#27314a;fill-rule:nonzero;"/><path d="M1604.69,850.301c-3.171,1.079 -5.95,2.904 -8.892,4.487c-3.304,1.771 -6.704,3.362 -10.204,4.704c-6.783,2.604 -13.875,4.45 -21.142,4.988c-13.571,1.012 -28.025,-2.517 -39.025,-10.683c-0.133,-0.1 -0.296,0.117 -0.175,0.229c10.625,9.613 24.6,13.646 38.783,12.875c7.454,-0.404 14.875,-2.046 21.846,-4.708c3.433,-1.312 6.788,-2.833 10.042,-4.542c3.35,-1.754 6.775,-3.562 9.317,-6.408c0.35,-0.387 0.017,-1.137 -0.55,-0.942" style="fill:#27314a;fill-rule:nonzero;"/><path d="M1609.101,840.766c-2.562,1.758 -5.083,3.554 -7.808,5.062c-1.525,0.842 -3.112,1.542 -4.658,2.342c-1.442,0.746 -3.179,1.275 -4.396,2.379c-0.071,0.062 -0.008,0.154 0.067,0.163c1.463,0.196 2.992,-0.363 4.379,-0.767c1.438,-0.421 2.812,-1.004 4.179,-1.617c2.817,-1.267 5.617,-2.721 8.129,-4.529c0.9,-0.646 3.037,-1.812 2.912,-3.121c-0.146,-1.567 -2.167,-0.35 -2.804,0.088" style="fill:#27314a;fill-rule:nonzero;"/><path d="M1580.627,1043.423c-0.037,-2.317 -0.037,-4.638 -0.037,-6.954c0,-2.088 0.546,-4.875 -0.471,-6.767c-0.458,-0.846 -1.633,-0.737 -2.117,0c-0.633,0.971 -0.65,2.162 -0.704,3.292c-0.067,1.246 -0.112,2.496 -0.154,3.742c-0.075,2.321 -0.075,4.638 -0.042,6.954c0.067,4.75 0.071,9.583 1.275,14.204c0.354,1.362 2.183,0.942 2.308,-0.312c0.479,-4.7 0.013,-9.442 -0.058,-14.158" style="fill:#27314a;fill-rule:nonzero;"/><path d="M1556.601,1117.713c1.958,-9.592 4.071,-19.15 6.383,-28.662c2.379,-9.788 5.379,-19.579 7.054,-29.513c0.058,-0.342 -0.454,-0.642 -0.621,-0.263c-3.388,7.963 -5.45,16.517 -7.717,24.858c-2.346,8.646 -4.387,17.404 -6.275,26.162c-3.788,17.533 -6.892,35.225 -9.296,53c-4.758,35.246 -7.104,71.108 -6.263,106.675c0.454,19.275 1.546,38.675 4.267,57.779c-18.729,-0.05 -37.462,-0.104 -56.196,-0.071c-2.708,0.004 -5.421,-0.013 -8.129,-0.021c0.158,1.208 0.308,2.371 0.458,3.483c21.442,0.042 42.879,-0.021 64.321,-0.088c4.096,-0.013 8.196,-0.021 12.292,-0.029c-0.083,-1.054 -0.171,-2.125 -0.258,-3.258c-3.183,-0.008 -6.371,0 -9.558,-0.012c-1.521,-16.971 -3.083,-33.904 -3.713,-50.942c-0.654,-17.725 -0.763,-35.542 -0.058,-53.267c1.408,-35.508 6.196,-71.033 13.308,-105.833" style="fill:#27314a;fill-rule:nonzero;"/><path d="M1699.114,1327.581c-4.433,0.012 -8.871,0.021 -13.304,0.033c0.175,-0.217 0.3,-0.492 0.283,-0.863c-0.954,-23.521 -2.158,-47.017 -2.329,-70.562c-0.083,-11.587 -0.004,-23.183 0.412,-34.762c0.421,-11.692 1.554,-23.342 1.871,-35.033c0.625,-23 -3.679,-45.671 -4.704,-68.588c-0.513,-11.446 0.021,-22.896 0.083,-34.342c0.062,-11.412 -0.329,-22.833 -1.229,-34.213c-1.987,-25.175 -5.846,-50.754 -13.633,-74.825c-0.271,-0.829 -1.5,-0.492 -1.308,0.358c5.046,22.367 9.704,44.683 11.846,67.546c1.05,11.192 1.65,22.433 1.725,33.675c0.075,11.417 -0.529,22.825 -0.388,34.242c0.283,22.95 4.812,45.604 4.979,68.554c0.083,11.5 -0.95,22.975 -1.6,34.45c-0.654,11.571 -1.075,23.163 -1.104,34.754c-0.067,26.25 1.033,52.542 2.575,78.746c0.021,0.375 0.175,0.65 0.379,0.871c-14.412,0.042 -28.825,0.088 -43.233,0.117c-5.571,0.008 -11.142,0.021 -16.712,0.033c0.292,1.146 0.571,2.242 0.837,3.296c20.733,0.037 41.463,0.079 62.196,0.117c4.162,0.008 8.329,0.021 12.492,0.033c-0.042,-1.171 -0.088,-2.383 -0.133,-3.637" style="fill:#27314a;fill-rule:nonzero;"/><path d="M1551.57,613.082c-0.233,-2.962 -1.463,-5.829 -3.729,-6.996c-0.662,-0.337 -1.358,-0.5 -2.096,-0.475c-0.5,-0.092 -0.987,-0.054 -1.467,0.108c-0.733,0.083 -1.404,0.346 -2.008,0.779c-0.35,0.304 -0.704,0.608 -1.054,0.908c-0.633,0.713 -1.05,1.525 -1.246,2.442c-0.913,4.246 -0.3,12.875 6.017,12.138c1.442,-0.171 2.908,-0.738 3.842,-1.867c1.358,-1.654 1.95,-4.383 1.742,-7.038" style="fill:#27314a;fill-rule:nonzero;"/><path d="M1592.245,614.116c-0.233,-2.962 -1.463,-5.829 -3.729,-6.996c-0.662,-0.337 -1.358,-0.5 -2.096,-0.475c-0.5,-0.092 -0.987,-0.054 -1.467,0.108c-0.733,0.083 -1.404,0.346 -2.008,0.779c-0.35,0.304 -0.704,0.608 -1.054,0.908c-0.633,0.713 -1.05,1.525 -1.246,2.442c-0.913,4.246 -0.3,12.875 6.017,12.138c1.442,-0.171 2.908,-0.738 3.842,-1.867c1.358,-1.654 1.95,-4.383 1.742,-7.038" style="fill:#27314a;fill-rule:nonzero;"/><path d="M1566.19,635.713c-0.583,-0.558 -1.15,-1.067 -1.817,-1.529c-0.608,-0.425 -1.258,-0.771 -1.804,-1.275c-1.092,-1.008 -1.746,-2.375 -0.654,-3.625c1.275,-1.458 2.258,-3.004 2.908,-4.838c0.562,-1.579 1.233,-3.979 0.4,-5.55c-0.358,-0.679 -1.358,-0.625 -1.729,0c-0.521,0.875 -0.554,2.029 -0.833,3.004c-0.275,0.95 -0.667,1.846 -1.175,2.696c-0.5,0.846 -1.075,1.604 -1.742,2.321c-0.829,0.883 -1.525,1.787 -1.654,3.025c-0.2,1.967 0.833,3.892 2.304,5.142c0.721,0.612 1.525,1.171 2.392,1.562c0.913,0.408 1.792,0.525 2.779,0.579c0.771,0.042 1.162,-0.996 0.625,-1.512" style="fill:#cf4d4f;fill-rule:nonzero;"/><path d="M1585.541,608.257c-0.138,-0.483 -0.379,-0.9 -0.733,-1.254l-0.571,-0.446c-0.446,-0.254 -0.925,-0.383 -1.438,-0.388c-0.392,-0.012 -0.754,0.067 -1.096,0.246c-0.35,0.117 -0.654,0.312 -0.912,0.587c-0.279,0.258 -0.475,0.562 -0.588,0.917c-0.179,0.337 -0.258,0.7 -0.246,1.092c0.033,0.254 0.067,0.504 0.1,0.758c0.138,0.479 0.379,0.9 0.733,1.254l0.575,0.442c0.442,0.258 0.921,0.388 1.433,0.388c0.392,0.017 0.758,-0.062 1.096,-0.242c0.354,-0.117 0.658,-0.312 0.912,-0.587c0.279,-0.258 0.475,-0.562 0.592,-0.917c0.175,-0.337 0.258,-0.704 0.242,-1.096c-0.033,-0.25 -0.067,-0.5 -0.1,-0.754" style="fill:#fff;fill-rule:nonzero;"/><path d="M1542.126,625.644c0,3.046 -3.783,5.517 -8.446,5.517c-4.662,0 -8.446,-2.471 -8.446,-5.517c0,-3.046 3.783,-5.517 8.446,-5.517c4.662,0 8.446,2.471 8.446,5.517" style="fill:#e45f64;fill-rule:nonzero;"/><path d="M1608.308,626.851c0,3.046 -3.779,5.517 -8.446,5.517c-4.662,0 -8.446,-2.471 -8.446,-5.517c0,-3.046 3.783,-5.517 8.446,-5.517c4.667,0 8.446,2.471 8.446,5.517" style="fill:#e45f64;fill-rule:nonzero;"/><path d="M1593.975,603.286c-0.296,-0.296 -0.808,-0.471 -1.217,-0.321c-0.096,0.033 -0.188,0.071 -0.283,0.112c-0.112,0.029 -0.208,0.087 -0.292,0.167c-0.054,0.042 -0.108,0.083 -0.162,0.129c-0.021,0.017 -0.037,0.038 -0.054,0.054c-0.079,0.087 -0.158,0.171 -0.242,0.254l-0.479,0.508c-0.142,0.15 -0.271,0.312 -0.358,0.5c-0.046,0.104 -0.096,0.204 -0.142,0.308c-0.025,0.05 -0.05,0.1 -0.075,0.154c-0.013,0.025 -0.025,0.054 -0.038,0.083c-0.025,0.046 -0.042,0.096 -0.062,0.142c-0.046,0.079 -0.071,0.167 -0.071,0.262c-0.029,0.233 0.012,0.471 0.129,0.679c0.075,0.129 0.192,0.271 0.321,0.337c0.05,0.021 0.1,0.042 0.154,0.067c0.263,0.108 0.55,0.112 0.812,0c0.142,-0.058 0.275,-0.125 0.413,-0.192c0.092,-0.05 0.188,-0.096 0.283,-0.142c0.192,-0.096 0.354,-0.233 0.508,-0.383c0.154,-0.154 0.312,-0.308 0.467,-0.462c0.083,-0.083 0.167,-0.163 0.246,-0.246c0.021,-0.017 0.037,-0.037 0.058,-0.054c0.067,-0.088 0.137,-0.179 0.204,-0.267l0.025,-0.033c0.079,-0.133 0.125,-0.292 0.175,-0.442c0.142,-0.417 -0.017,-0.913 -0.321,-1.217" style="fill:#e45f64;fill-rule:nonzero;"/><path d="M1596.084,608.2c-0.025,-0.062 -0.054,-0.125 -0.079,-0.188c-0.05,-0.092 -0.117,-0.167 -0.204,-0.221c-0.046,-0.05 -0.104,-0.083 -0.171,-0.1c-0.096,-0.05 -0.196,-0.071 -0.304,-0.071l-0.379,-0.046c-0.062,-0.008 -0.125,-0.017 -0.188,-0.025c-0.133,-0.017 -0.267,0.008 -0.4,0.033c-0.117,0.021 -0.242,0.038 -0.358,0.071c-0.163,0.046 -0.312,0.146 -0.463,0.225c-0.396,0.221 -0.396,0.837 0,1.058c0.146,0.079 0.287,0.167 0.446,0.221c0.117,0.042 0.25,0.05 0.375,0.075c0.129,0.025 0.25,0.05 0.379,0.038c0.062,-0.008 0.129,-0.017 0.192,-0.025l0.396,-0.05c0.071,-0.012 0.142,-0.021 0.208,-0.029c0.104,-0.025 0.192,-0.071 0.267,-0.142c0.129,-0.1 0.25,-0.246 0.283,-0.408c0.017,-0.067 0.033,-0.146 0.033,-0.208c-0.004,-0.071 -0.017,-0.142 -0.033,-0.208" style="fill:#e45f64;fill-rule:nonzero;"/><path d="M1543.488,607.309c-0.138,-0.479 -0.379,-0.9 -0.733,-1.254l-0.575,-0.446c-0.442,-0.254 -0.921,-0.383 -1.433,-0.388c-0.392,-0.012 -0.754,0.067 -1.096,0.246c-0.35,0.117 -0.654,0.312 -0.912,0.587c-0.279,0.258 -0.475,0.562 -0.588,0.917c-0.179,0.337 -0.262,0.704 -0.246,1.092c0.033,0.254 0.067,0.504 0.1,0.758c0.138,0.479 0.379,0.9 0.733,1.254l0.575,0.442c0.442,0.258 0.921,0.388 1.433,0.392c0.392,0.013 0.758,-0.067 1.096,-0.246c0.35,-0.117 0.658,-0.312 0.912,-0.587c0.279,-0.258 0.475,-0.562 0.592,-0.917c0.175,-0.337 0.258,-0.704 0.242,-1.096c-0.033,-0.25 -0.067,-0.5 -0.1,-0.754" style="fill:#fff;fill-rule:nonzero;"/><path d="M1537.159,603.514c-0.037,-0.075 -0.088,-0.146 -0.15,-0.2c-0.112,-0.113 -0.246,-0.183 -0.392,-0.229l0.125,0.054c-0.117,-0.05 -0.221,-0.121 -0.325,-0.192c-0.025,-0.025 -0.054,-0.05 -0.079,-0.075c-0.079,-0.079 -0.162,-0.163 -0.262,-0.217c-0.038,-0.017 -0.071,-0.033 -0.104,-0.054c-0.121,-0.071 -0.217,-0.162 -0.358,-0.196c-0.1,-0.021 -0.2,-0.017 -0.3,-0.029c0.017,0 0.029,0.004 0.046,0.004c-0.158,-0.021 -0.304,0.025 -0.421,0.138c-0.013,0.012 -0.025,0.025 -0.038,0.042c-0.046,0.054 -0.092,0.117 -0.137,0.175c-0.046,0.067 -0.071,0.113 -0.092,0.208c-0.017,0.075 -0.033,0.167 -0.025,0.242c0.013,0.146 0.033,0.3 0.075,0.446c0.004,0.017 0.008,0.038 0.017,0.054c0.05,0.167 0.125,0.296 0.242,0.425c0.029,0.038 0.062,0.071 0.096,0.1c0.175,0.175 0.383,0.333 0.604,0.45c0.038,0.021 0.075,0.042 0.117,0.058c0.175,0.079 0.362,0.175 0.562,0.163c0.25,-0.008 0.5,-0.096 0.671,-0.288c0.142,-0.154 0.275,-0.362 0.254,-0.583c-0.017,-0.183 -0.033,-0.333 -0.125,-0.496" style="fill:#e45f64;fill-rule:nonzero;"/><path d="M1535.29,607.901c-0.129,-0.083 -0.267,-0.171 -0.421,-0.204c-0.158,-0.038 -0.329,-0.05 -0.496,-0.067c-0.192,-0.021 -0.383,-0.029 -0.575,-0.033c-0.525,-0.004 -1.083,0.038 -1.55,0.304c-0.35,0.196 -0.562,0.675 -0.438,1.067c0.133,0.413 0.483,0.671 0.913,0.692c0.083,0.004 0.167,-0.008 0.25,-0.017c0.167,-0.013 0.333,-0.025 0.5,-0.058c0.125,-0.029 0.254,-0.05 0.383,-0.067c0.158,-0.021 0.317,-0.038 0.475,-0.042c0.1,-0.004 0.2,0 0.3,-0.004c0.171,-0.004 0.308,-0.05 0.467,-0.104c0.308,-0.108 0.529,-0.333 0.575,-0.667c0.046,-0.329 -0.108,-0.621 -0.383,-0.8" style="fill:#e45f64;fill-rule:nonzero;"/><path d="M1545.706,589.899c0.35,-0.438 0.6,-0.842 0.679,-1.417c0.067,-0.517 0.008,-1.129 -0.296,-1.575c-0.196,-0.292 -0.413,-0.617 -0.65,-0.858c-0.5,-0.508 -1.079,-0.733 -1.733,-0.975c-0.883,-0.321 -1.958,-0.154 -2.85,0.013c-1.217,0.225 -2.4,0.696 -3.483,1.292c-1.029,0.571 -2.113,1.308 -2.888,2.196c-1,1.15 -2.092,2.792 -2.075,4.354c0.025,2.2 2.371,3.454 4.263,2.446c0.85,-0.458 1.458,-1.312 2.217,-1.904c-0.221,0.167 -0.442,0.337 -0.663,0.508c0.346,-0.263 0.679,-0.533 1.017,-0.8c0.592,-0.446 1.238,-0.792 1.908,-1.104c0.554,-0.208 1.112,-0.413 1.7,-0.538c0.588,-0.125 1.146,-0.321 1.675,-0.612c0.433,-0.242 0.817,-0.546 1.117,-0.938c0,0.004 0.025,-0.033 0.029,-0.042c-0.033,0.037 -0.042,0.046 0.033,-0.046" style="fill:#6d263b;fill-rule:nonzero;"/><path d="M1545.675,589.945c0.088,-0.1 0.379,-0.458 0.271,-0.354c-0.075,0.075 -0.233,0.296 -0.271,0.354" style="fill:#6d263b;fill-rule:nonzero;"/><path d="M1593.801,593.973c-0.188,0.079 -0.233,0.1 0,0" style="fill:#6d263b;fill-rule:nonzero;"/><path d="M1581.923,589.293c-0.013,-0.008 -0.017,-0.017 -0.025,-0.025c-0.046,-0.033 -0.083,-0.054 -0.129,-0.092c0.008,0.004 0.083,0.062 0.154,0.117" style="fill:#6d263b;fill-rule:nonzero;"/><path d="M1594.577,589.295c-1.233,-2.029 -3.438,-3.329 -5.654,-4.017c-1.092,-0.342 -2.254,-0.546 -3.4,-0.538c-1.45,0.008 -2.938,0.163 -4.004,1.242c-1.021,1.033 -0.667,2.475 0.379,3.283c0.308,0.233 0.562,0.4 0.946,0.538c0.192,0.067 0.383,0.117 0.583,0.158c0.425,0.096 0.85,0.183 1.271,0.317c0.375,0.117 0.742,0.258 1.112,0.392c0.196,0.067 0.392,0.154 0.588,0.221c-0.921,-0.308 -0.2,-0.075 0.054,0.05c0.763,0.387 1.508,0.854 2.213,1.342c0.029,0.017 0.054,0.046 0.083,0.071c-0.042,-0.042 -0.05,-0.05 -0.112,-0.108c0.308,0.296 0.675,0.562 1.029,0.796c0.337,0.221 0.662,0.471 1.033,0.642c0.346,0.162 0.696,0.354 1.062,0.471c0.246,0.075 0.575,0.133 0.833,0.133c0.458,0 0.796,-0.163 1.204,-0.312c0.058,-0.025 0.088,-0.038 0.179,-0.075l-0.171,0.071l-0.004,0.004c0.046,-0.021 0.088,-0.033 0.138,-0.054c0.025,-0.008 0.042,-0.025 0.062,-0.033c0.013,-0.004 0.008,-0.004 0.021,-0.008c0.129,-0.083 0.275,-0.196 0.387,-0.304c1.196,-1.117 0.95,-2.992 0.167,-4.279" style="fill:#6d263b;fill-rule:nonzero;"/><path d="M1588.749,592.353c0.425,0.404 0.225,0.179 0,0" style="fill:#6d263b;fill-rule:nonzero;"/><path d="M1581.923,589.293c0.008,0.008 0.017,0.021 0.025,0.025c0.192,0.142 0.087,0.062 -0.025,-0.025" style="fill:#6d263b;fill-rule:nonzero;"/><path d="M1570.077,643.049c-1.612,-0.962 -3.783,-1.312 -5.629,-1.163c-2.242,0.188 -4.338,0.917 -6.025,2.438c-1.146,1.025 0.321,2.817 1.612,2.088c1.404,-0.796 2.971,-1.292 4.583,-1.3c0.433,-0.004 0.858,0.029 1.283,0.071c0.037,0.004 0.388,0.042 0.204,0.021c-0.158,-0.021 0.117,0.017 0.121,0.017c0.254,0.046 0.504,0.092 0.754,0.154c1.004,0.246 1.667,0.608 2.467,0.892c0.504,0.179 1.112,0.392 1.629,0.163c0.075,-0.033 0.279,-0.192 0.354,-0.246c0.137,-0.129 0.237,-0.217 0.317,-0.404c0.496,-1.15 -0.792,-2.204 -1.671,-2.729" style="fill:#cf4d4f;fill-rule:nonzero;"/><path d="M1571.433,646.181c-0.021,0.021 -0.025,0.042 -0.05,0.062c0.108,-0.1 0.096,-0.092 0.05,-0.062" style="fill:#cf4d4f;fill-rule:nonzero;"/><path d="M1282.94,660.266c-0.842,-6.271 -6.833,-12.929 -13.775,-12.163c-5.483,0.608 -10.008,2.075 -14.879,4.725c-2.379,1.296 -4.696,2.708 -6.954,4.204c-5.604,3.717 -11.008,7.921 -15.796,12.654c-4.642,4.592 -8.996,9.762 -11.888,15.633c-1.638,3.325 -3.004,6.779 -3.971,10.358c-0.821,3.025 -1.037,5.987 -0.212,9.058c1.283,4.771 5.688,9.483 11.083,9.067c3.683,-0.283 6.754,-1.596 9.429,-4.146c1.517,-1.446 2.517,-3.225 3.654,-4.946c1.275,-1.938 2.679,-3.808 4.088,-5.658c1.4,-1.767 2.804,-3.525 4.175,-5.317c-0.742,0.962 -1.487,1.925 -2.229,2.888c3.713,-4.746 8.013,-8.946 12.7,-12.717c3.792,-2.812 7.825,-5.442 12.05,-7.558c0.812,-0.267 1.613,-0.562 2.479,-0.692c3.108,-0.479 6.954,-3.75 8.379,-6.446c1.5,-2.833 2.096,-5.754 1.667,-8.946" style="fill:#fff;fill-rule:nonzero;"/><path d="M1329.008,653.139c-0.004,-1.096 -0.279,-2.117 -0.829,-3.062c-0.287,-1.029 -0.808,-1.921 -1.558,-2.679c-0.296,-0.558 -0.679,-1.029 -1.162,-1.404c-0.825,-0.638 -1.65,-1.275 -2.475,-1.913c-0.162,-0.117 -0.329,-0.225 -0.496,-0.333c-1.196,-0.775 -2.546,-1.312 -3.925,-1.688c-0.871,-0.233 -1.754,-0.429 -2.646,-0.587c-1.817,-0.321 -3.654,-0.562 -5.492,-0.746c-0.9,-0.088 -1.8,-0.167 -2.696,-0.067c-1.775,0.196 -3.575,0.425 -5.325,0.808c-0.429,0.096 -0.858,0.196 -1.283,0.312c-0.679,0.179 -1.208,0.429 -1.9,0.721c-1.342,0.567 -2.763,1.358 -3.742,2.479c-1.842,2.104 -3.333,4.825 -3.204,7.737c0.121,2.708 0.983,5.975 3.204,7.742c1.592,1.263 2.992,2.513 5.075,2.988c0.338,0.075 0.688,0.112 1.037,0.163c0.896,0.142 1.788,0.296 2.667,0.521c1.013,0.258 2.046,0.383 3.067,0.6c1.029,0.217 2.046,0.487 3.05,0.812c0.475,0.154 0.95,0.325 1.421,0.504c0.517,0.196 1.075,0.275 1.625,0.367c-0.054,-0.004 -0.108,-0.013 -0.162,-0.021c0.075,0.012 0.154,0.029 0.229,0.038c0.467,0.079 0.921,0.179 1.392,0.225c0.654,0.108 1.304,0.2 1.929,0.217c0.638,0.054 1.267,-0.012 1.892,-0.2c1.096,-0.004 2.117,-0.279 3.067,-0.829c1.025,-0.287 1.917,-0.808 2.675,-1.558c0.471,-0.279 0.892,-0.608 1.271,-0.992c0.067,-0.067 0.138,-0.129 0.2,-0.196c2.075,-2.171 3.279,-5.108 3.312,-8.112c0.008,-0.642 -0.112,-1.075 -0.217,-1.846" style="fill:#fff;fill-rule:nonzero;"/><path d="M1365.153,821.067c-0.408,-1.725 -1.2,-3.225 -2.371,-4.504c-2.421,-3.137 -6.287,-5.454 -10.408,-5.225c-0.412,0.025 -0.825,0.037 -1.242,0.05c-2.979,0.121 -5.438,0.854 -8.013,2.233c-0.971,0.521 -1.842,1.062 -2.742,1.692c-0.829,0.579 -1.675,1.125 -2.546,1.638c-1.062,0.629 -2.042,1.371 -3.008,2.133c-3.45,2.496 -7.683,4.275 -9.696,8.225c-0.967,1.896 -1.387,3.788 -1.104,5.917c0.292,2.15 1.158,3.654 2.554,5.329c2.933,3.517 7.217,3.954 11.417,4.367c1.858,0.183 3.737,0.246 5.604,0.142c3.117,-0.179 5.921,-1.004 8.775,-2.158c2.242,-0.913 3.846,-1.558 5.646,-2.917c2.213,-1.675 4.229,-3.113 5.4,-5.746c0.608,-1.362 1.179,-2.742 1.733,-4.129c0.629,-2.35 0.629,-4.696 0,-7.046" style="fill:#fff;fill-rule:nonzero;"/><path d="M1569.846,1845.535l-44.867,0l-92.721,-377.862l44.867,0l92.721,377.862Z" style="fill:#80aed8;fill-rule:nonzero;"/><path d="M1844.022,1845.535l-44.867,0l-92.721,-377.862l44.867,0l92.721,377.862Z" style="fill:#80aed8;fill-rule:nonzero;"/><path d="M1557.383,1845.535l-44.867,0l-92.721,-377.862l44.867,0l92.721,377.862Z" style="fill:#b1d0e8;fill-rule:nonzero;"/><path d="M1318.103,1845.535l44.867,0l92.721,-377.862l-44.867,0l-92.721,377.862Z" style="fill:#80aed8;fill-rule:nonzero;"/><path d="M1832.556,1845.535l-44.867,0l-92.721,-377.862l44.867,0l92.721,377.862Z" style="fill:#b1d0e8;fill-rule:nonzero;"/><rect x="1479.617" y="1564.379" width="265.204" height="38.883" style="fill:#b1d0e8;"/><rect x="1521.492" y="1702.963" width="265.204" height="38.883" style="fill:#b1d0e8;"/><path d="M1300.821,1845.535l44.867,0l92.721,-377.862l-44.867,0l-92.721,377.862Z" style="fill:#fff;fill-rule:nonzero;"/><path d="M1592.611,1845.535l44.867,0l92.721,-377.862l-44.867,0l-92.721,377.862Z" style="fill:#80aed8;fill-rule:nonzero;"/><path d="M1575.994,1845.535l44.867,0l92.721,-377.862l-44.867,0l-92.721,377.862Z" style="fill:#fff;fill-rule:nonzero;"/><rect x="1388.558" y="1564.379" width="265.204" height="38.883" style="fill:#fff;"/><rect x="1346.683" y="1702.963" width="265.204" height="38.883" style="fill:#fff;"/><path d="M1747.154,1477.641l-364.254,0c-8.804,0 -15.942,-7.138 -15.942,-15.946l0,-0.679c0,-8.804 7.138,-15.942 15.942,-15.942l364.254,0c8.804,0 15.946,7.138 15.946,15.942l0,0.679c0,8.808 -7.142,15.946 -15.946,15.946" style="fill:#fff;fill-rule:nonzero;"/><path d="M391.997,1138.222l297.1,0c9.896,0 19.258,3.888 25.467,10.575l41.942,45.188c4.142,4.458 10.383,7.05 16.979,7.05l463.792,0c16.429,0 29.746,11.554 29.746,25.813l0,563.008c0,30.75 -28.729,55.679 -64.171,55.679l-796.2,0c-24.817,0 -44.937,-17.458 -44.937,-38.992l0,-642.042c0,-14.512 13.558,-26.279 30.283,-26.279" style="fill:#ee7339;fill-rule:nonzero;"/><path d="M609.815,801.976l-124.996,124.996l0,478.983l612.729,0l0,-603.979l-487.733,0Z" style="fill:#fff;fill-rule:nonzero;"/><path d="M609.815,926.971l0,-124.996l-124.996,124.996l124.996,0Z" style="fill:#b1d0e8;fill-rule:nonzero;"/><path d="M287.768,1279.34l823.237,0c19.404,0 36.054,11.987 39.638,28.533l107.404,496.208c4.663,21.538 -14.379,41.454 -39.633,41.454l-823.242,0c-19.4,0 -36.054,-11.988 -39.633,-28.538l-107.408,-496.204c-4.663,-21.538 14.379,-41.454 39.637,-41.454" style="fill:#ffad6c;fill-rule:nonzero;"/><path d="M816.19,1058.485c15.663,-15.875 31.296,-31.783 46.938,-47.692c9.212,-9.367 10.042,-26.258 0,-35.475c-9.942,-9.129 -25.642,-9.996 -35.471,0c-15.871,15.6 -31.733,31.196 -47.567,46.817c-15.675,-15.675 -31.408,-31.296 -47.329,-46.733c-9.258,-9.546 -26.708,-9.992 -35.879,0c-9.417,10.254 -9.875,25.696 0,35.879c15.396,15.879 30.971,31.571 46.608,47.204c-15.629,15.625 -31.196,31.308 -46.588,47.179c-9.546,9.258 -9.992,26.713 0,35.883c10.258,9.412 25.696,9.875 35.879,0c15.912,-15.433 31.642,-31.046 47.308,-46.713c15.825,15.612 31.683,31.2 47.542,46.792c9.367,9.212 26.258,10.042 35.475,0c9.129,-9.942 9.996,-25.646 0,-35.475c-15.633,-15.9 -31.262,-31.796 -46.917,-47.667" style="fill:#e45f64;fill-rule:nonzero;"/><path d="M257.129,890.413c-17.783,0 -32.204,-14.417 -32.204,-32.204c0,-17.783 14.421,-32.2 32.204,-32.2c17.783,0 32.204,14.417 32.204,32.2c0,17.787 -14.421,32.204 -32.204,32.204m53.567,-47.817l-5.371,0c-0.829,-2.571 -1.867,-5.05 -3.079,-7.421l3.8,-3.804c3.592,-3.592 3.592,-9.421 0,-13.012l-9.067,-9.067c-3.592,-3.592 -9.421,-3.592 -13.012,0l-3.8,3.804c-2.375,-1.217 -4.854,-2.25 -7.425,-3.083l0,-5.367c0,-5.083 -4.121,-9.204 -9.204,-9.204l-12.817,0c-5.083,0 -9.204,4.121 -9.204,9.204l0,5.367c-2.571,0.833 -5.05,1.867 -7.425,3.083l-3.8,-3.804c-3.592,-3.592 -9.421,-3.592 -13.012,0l-9.067,9.067c-3.592,3.592 -3.592,9.421 0,13.012l3.8,3.804c-1.212,2.371 -2.25,4.85 -3.079,7.421l-5.371,0c-5.083,0 -9.2,4.121 -9.2,9.204l0,12.821c0,5.079 4.117,9.2 9.2,9.2l5.371,0c0.829,2.571 1.867,5.05 3.079,7.425l-3.8,3.8c-3.592,3.596 -3.592,9.421 0,13.017l9.067,9.062c3.592,3.596 9.421,3.596 13.012,0l3.8,-3.8c2.375,1.217 4.854,2.25 7.425,3.083l0,5.367c0,5.083 4.121,9.204 9.204,9.204l12.817,0c5.083,0 9.204,-4.121 9.204,-9.204l0,-5.367c2.571,-0.833 5.05,-1.867 7.425,-3.083l3.8,3.8c3.592,3.596 9.421,3.596 13.012,0l9.067,-9.062c3.592,-3.596 3.592,-9.421 0,-13.017l-3.8,-3.8c1.212,-2.375 2.25,-4.854 3.079,-7.425l5.371,0c5.083,0 9.2,-4.121 9.2,-9.2l0,-12.821c0,-5.083 -4.117,-9.204 -9.2,-9.204" style="fill:#d1b7aa;fill-rule:nonzero;"/><path d="M1300.463,1107.984c-17.783,0 -32.204,-14.417 -32.204,-32.204c0,-17.783 14.421,-32.2 32.204,-32.2c17.783,0 32.204,14.417 32.204,32.2c0,17.787 -14.421,32.204 -32.204,32.204m53.567,-47.817l-5.367,0c-0.833,-2.571 -1.871,-5.05 -3.083,-7.421l3.8,-3.804c3.592,-3.592 3.592,-9.417 0,-13.013l-9.067,-9.067c-3.592,-3.592 -9.421,-3.592 -13.012,0l-3.8,3.804c-2.375,-1.217 -4.854,-2.25 -7.425,-3.083l0,-5.367c0,-5.083 -4.121,-9.204 -9.204,-9.204l-12.817,0c-5.083,0 -9.204,4.121 -9.204,9.204l0,5.367c-2.571,0.833 -5.05,1.867 -7.425,3.083l-3.8,-3.804c-3.592,-3.592 -9.421,-3.592 -13.012,0l-9.067,9.067c-3.592,3.596 -3.592,9.421 0,13.013l3.8,3.804c-1.213,2.371 -2.25,4.85 -3.083,7.421l-5.367,0c-5.083,0 -9.2,4.121 -9.2,9.204l0,12.821c0,5.079 4.117,9.2 9.2,9.2l5.367,0c0.833,2.571 1.871,5.05 3.083,7.425l-3.8,3.8c-3.592,3.596 -3.592,9.421 0,13.017l9.067,9.062c3.592,3.596 9.421,3.596 13.012,0l3.8,-3.8c2.375,1.217 4.854,2.25 7.425,3.083l0,5.367c0,5.083 4.121,9.204 9.204,9.204l12.817,0c5.083,0 9.204,-4.121 9.204,-9.204l0,-5.367c2.571,-0.833 5.05,-1.867 7.425,-3.083l3.8,3.8c3.592,3.596 9.421,3.596 13.012,0l9.067,-9.062c3.592,-3.596 3.592,-9.421 0,-13.017l-3.8,-3.8c1.213,-2.375 2.25,-4.854 3.083,-7.425l5.367,0c5.083,0 9.2,-4.121 9.2,-9.2l0,-12.821c0,-5.083 -4.117,-9.204 -9.2,-9.204" style="fill:#d1b7aa;fill-rule:nonzero;"/><path d="M360.908,783.669c-23.433,-8.875 -35.233,-35.067 -26.358,-58.5c8.875,-23.433 35.067,-35.233 58.5,-26.358c23.433,8.879 35.233,35.067 26.358,58.5c-8.875,23.433 -35.067,35.233 -58.5,26.358m94.438,-36.267l-7.075,-2.679c0.188,-3.804 0.062,-7.587 -0.354,-11.321l6.904,-3.108c6.529,-2.942 9.438,-10.621 6.496,-17.146l-7.421,-16.467c-2.942,-6.529 -10.617,-9.438 -17.146,-6.496l-6.904,3.108c-2.521,-2.783 -5.271,-5.383 -8.242,-7.762l2.679,-7.075c2.533,-6.696 -0.837,-14.179 -7.533,-16.717l-16.892,-6.396c-6.696,-2.538 -14.179,0.833 -16.717,7.529l-2.679,7.075c-3.804,-0.188 -7.588,-0.058 -11.321,0.354l-3.108,-6.904c-2.942,-6.529 -10.621,-9.438 -17.146,-6.496l-16.471,7.421c-6.525,2.942 -9.433,10.617 -6.492,17.146l3.108,6.904c-2.783,2.521 -5.383,5.271 -7.767,8.246l-7.071,-2.679c-6.696,-2.538 -14.179,0.833 -16.717,7.529l-6.396,16.892c-2.538,6.696 0.833,14.183 7.529,16.717l7.075,2.679c-0.188,3.804 -0.062,7.587 0.354,11.321l-6.904,3.108c-6.529,2.942 -9.438,10.621 -6.496,17.15l7.421,16.467c2.942,6.529 10.617,9.438 17.146,6.496l6.904,-3.113c2.521,2.783 5.271,5.383 8.246,7.767l-2.679,7.071c-2.537,6.696 0.833,14.183 7.529,16.717l16.892,6.4c6.696,2.538 14.179,-0.837 16.717,-7.533l2.679,-7.071c3.804,0.183 7.588,0.058 11.321,-0.358l3.108,6.904c2.942,6.529 10.621,9.438 17.15,6.496l16.467,-7.421c6.525,-2.942 9.433,-10.617 6.492,-17.146l-3.108,-6.904c2.783,-2.521 5.383,-5.271 7.767,-8.242l7.071,2.679c6.696,2.533 14.179,-0.837 16.717,-7.533l6.4,-16.892c2.533,-6.696 -0.838,-14.179 -7.533,-16.717" style="fill:#d1b7aa;fill-rule:nonzero;"/><path d="M533.452,434.688l-33.796,71.671l72.558,202.075l189.921,-68.196l-91.5,-254.812l-137.183,49.263Z" style="fill:#fff;fill-rule:nonzero;"/><path d="M552.387,487.421l-18.933,-52.733l-33.8,71.671l52.733,-18.938Z" style="fill:#f9e9d8;fill-rule:nonzero;"/><path d="M640.687,540.026c4.692,-10.129 9.367,-20.262 14.042,-30.404c2.754,-5.971 0.292,-14.067 -6,-16.708c-6.225,-2.621 -13.771,-0.375 -16.708,6c-4.833,10.029 -9.671,20.058 -14.488,30.096c-10.033,-4.733 -20.087,-9.429 -30.2,-14.008c-5.971,-2.929 -14.271,-0.188 -16.9,6.071c-2.7,6.421 -0.304,13.771 6.071,16.9c9.938,4.875 19.929,9.633 29.938,14.35c-4.717,10.004 -9.4,20.025 -13.963,30.104c-2.933,5.975 -0.192,14.271 6.067,16.904c6.425,2.7 13.775,0.304 16.904,-6.071c4.883,-9.962 9.65,-19.975 14.379,-30.004c10.096,4.675 20.204,9.337 30.312,14c5.971,2.754 14.067,0.287 16.708,-6c2.617,-6.229 0.371,-13.771 -6,-16.713c-10.054,-4.842 -20.104,-9.688 -30.163,-14.517" style="fill:#e45f64;fill-rule:nonzero;"/><path d="M930.58,299.762l-63.267,25.829l-71.725,170.7l160.429,67.412l90.45,-215.246l-115.887,-48.696Z" style="fill:#fff;fill-rule:nonzero;"/><path d="M911.862,344.309l18.717,-44.546l-63.263,25.829l44.546,18.717Z" style="fill:#f9e9d8;fill-rule:nonzero;"/><path d="M937.29,429.22c8.888,-3.7 17.767,-7.413 26.65,-11.129c5.233,-2.188 8.388,-8.767 5.933,-14.117c-2.429,-5.292 -8.533,-8.262 -14.117,-5.929c-8.921,3.554 -17.842,7.108 -26.754,10.675c-3.617,-8.858 -7.262,-17.704 -11.017,-26.508c-2.087,-5.346 -8.958,-8.442 -14.279,-6c-5.462,2.508 -8.225,8.571 -6,14.275c3.471,8.896 7.046,17.742 10.654,26.579c-8.829,3.604 -17.65,7.242 -26.425,10.983c-5.346,2.088 -8.442,8.958 -6,14.275c2.508,5.462 8.575,8.229 14.275,6c8.913,-3.479 17.783,-7.062 26.637,-10.679c3.688,8.862 7.388,17.717 11.092,26.571c2.188,5.233 8.771,8.387 14.117,5.933c5.296,-2.429 8.267,-8.533 5.933,-14.117c-3.562,-8.942 -7.125,-17.879 -10.7,-26.812" style="fill:#e45f64;fill-rule:nonzero;"/></g><g id="TEXT"><g transform="matrix(0.970707,-0.240268,0.240268,0.970707,0,0)"><text x="1380.717px" y="798.396px" style="font-family:'ArialMT', 'Arial', sans-serif;font-size:152.942px;fill:#fff;">?</text></g><g transform="matrix(0.755982,-0.654592,0.654592,0.755982,0,0)"><text x="798.265px" y="1348.042px" style="font-family:'ArialMT', 'Arial', sans-serif;font-size:134.875px;fill:#fff;">?</text></g><g transform="matrix(0.909012,0.41677,-0.41677,0.909012,0,0)"><text x="1635.761px" y="-269.877px" style="font-family:'ArialMT', 'Arial', sans-serif;font-size:134.875px;fill:#fff;">?</text></g></g></svg>